PathFileType	4	(X/Y/Z)	CPRIT_Patient3_R_AnkleIso_Processed.TRC
DataRate	CameraRate	NumFrames	NumMarkers	Units	OrigDataRate	OrigDataStartFrame	OrigNumFrames
150.227617602428	150.227617602428	4	39	m	150.227617602428	579	       661
Frame#	Time	R.Heel			R.Midfoot.Superior			R.Midfoot.Lateral			R.Toe			L.Heel			L.Midfoot.Superior			L.Midfoot.Lateral			L.Toe			R.Shank.Superior			R.Shank.Inferior			R.Shank.Lateral			R.Shank.Posterior			L.Shank.Superior			L.Shank.Inferior			L.Shank.Posterior			L.Shank.Lateral			R.Patella			L.Patella			R.Thigh.Superior			R.Thigh.Lateral			R.Thigh.Inferior			L.Thigh.Superior			L.Thigh.Inferior			L.Thigh.Lateral			L.Asis			R.Asis			Sacral			R.Shoulder			L.Shoulder			C7			J.Notch			Sternum			Thoracic			L.Elbow			L.Wrist			R.Elbow			R.Wrist			R.PSIS			L.PSIS			
		X1	Y1	Z1	X2	Y2	Z2	X3	Y3	Z3	X4	Y4	Z4	X5	Y5	Z5	X6	Y6	Z6	X7	Y7	Z7	X8	Y8	Z8	X9	Y9	Z9	X10	Y10	Z10	X11	Y11	Z11	X12	Y12	Z12	X13	Y13	Z13	X14	Y14	Z14	X15	Y15	Z15	X16	Y16	Z16	X17	Y17	Z17	X18	Y18	Z18	X19	Y19	Z19	X20	Y20	Z20	X21	Y21	Z21	X22	Y22	Z22	X23	Y23	Z23	X24	Y24	Z24	X25	Y25	Z25	X26	Y26	Z26	X27	Y27	Z27	X28	Y28	Z28	X29	Y29	Z29	X30	Y30	Z30	X31	Y31	Z31	X32	Y32	Z32	X33	Y33	Z33	X34	Y34	Z34	X35	Y35	Z35	X36	Y36	Z36	X37	Y37	Z37	X38	Y38	Z38	X39	Y39	Z39	

579	3.847494949495	0.990366475937	0.114586511023	0.178993994939	1.147199950218	0.194584339620	0.209359671358	1.055638464512	0.127786885848	0.247595998810	1.263941669487	0.168644817631	0.249027458075	0.643947701963	0.042775514932	-0.093850208395	0.806614646241	0.095570112823	-0.144446195193	0.709486112637	0.032673474821	-0.166041138686	0.920270923534	0.056551555850	-0.173553779783	0.996504167025	0.443637841371	0.160750177738	1.035473384593	0.329889983022	0.182703976934	0.945915482921	0.362856616659	0.218663371828	0.869052425890	0.383402787446	0.151143144992	0.769799358028	0.363154917525	-0.168937999289	0.757787686989	0.236010434883	-0.152233226206	0.631812428885	0.344286660844	-0.152495124434	0.695651232251	0.277631482802	-0.206034865717	0.971560819915	0.560028717947	0.119195179069	0.800941391521	0.466959402501	-0.169024151422	0.874049522302	0.843796591891	0.089724909590	0.824852457822	0.761250157918	0.146909404285	0.932570222827	0.701919243742	0.078526374174	0.859547842288	0.775105199957	-0.186238546570	0.841388169928	0.610692959863	-0.173123328872	0.758253455944	0.702891649140	-0.243909190076	0.854192027446	0.935878912404	-0.179513991129	0.814452843311	0.953466091498	0.061374540423	0.645086002450	0.986514545856	-0.080972982027	0.773323667386	1.437717210277	0.089558325327	0.821352463587	1.458318277372	-0.218386083939	0.754951865782	1.478740466121	-0.065349761263	0.856095582499	1.363306450513	-0.058213352328	0.894903364208	1.185227250777	-0.066405338088	0.647730771795	1.330511219311	-0.089461238910	0.853042349883	1.175790704656	-0.386570808118	1.008990853421	0.988393528947	-0.444964299080	0.769353508460	1.164699935199	0.273035613559	0.906442857419	0.991625604095	0.404768033749	0.639754271636	0.988007807219	-0.044022269771	0.651399684183	0.987251785434	-0.118664856219	
580	3.854151515152	0.991081393280	0.113823445981	0.178717804651	1.146991723199	0.195415806347	0.209387301645	1.055937259966	0.127917459821	0.247554671232	1.263793381759	0.170966988375	0.249639117886	0.643947915484	0.042775889623	-0.093849951245	0.806612298069	0.095569263830	-0.144450008043	0.709485977670	0.032673958750	-0.166040853413	0.920270780879	0.056550991966	-0.173552608834	0.996666688107	0.443616583654	0.160638135860	1.035625334283	0.329879987892	0.182572767387	0.946053162723	0.362811907510	0.218556017884	0.869236807178	0.383378305447	0.150993026512	0.769826138364	0.363151028846	-0.168935682667	0.757805000916	0.236007323855	-0.152231886690	0.631834264897	0.344292576675	-0.152491721367	0.695670221924	0.277631984815	-0.206034334747	0.971664916037	0.560033888855	0.119110499857	0.800930115694	0.466895537493	-0.168984959917	0.874098227964	0.843769670136	0.089718514322	0.824901545027	0.761202918879	0.146882274612	0.932635000635	0.701915704028	0.078487934466	0.859562553345	0.775116060233	-0.186211003549	0.841399413105	0.610705716133	-0.173077830496	0.758292698460	0.702894921836	-0.243908979340	0.854202922613	0.935890681041	-0.179513011718	0.814497040825	0.953441129020	0.061376599795	0.645098839663	0.986494087908	-0.080953979018	0.773316121535	1.437716720345	0.089565092281	0.821314294521	1.458302667927	-0.218396610306	0.754919367572	1.478728191502	-0.065331393652	0.856095079562	1.363318430089	-0.058215215287	0.894928437368	1.185262657533	-0.066394203257	0.647710992081	1.330492298770	-0.089440252470	0.853025558851	1.175775041756	-0.386574708908	1.008992179950	0.988394170535	-0.444969190269	0.769346604087	1.164699434904	0.273044097070	0.906442527855	0.991624580940	0.404770066024	0.639766723325	0.987984134542	-0.044004445502	0.651413870486	0.987234135072	-0.118644485136	
581	3.860808080808	0.991789715683	0.113080385670	0.178452559981	1.146783665266	0.196230491041	0.209396885823	1.056236668926	0.128050675783	0.247508898657	1.263634388759	0.173256343871	0.250201062744	0.643948083172	0.042776383519	-0.093849820521	0.806609795679	0.095568508441	-0.144454239785	0.709485862033	0.032674364364	-0.166040576719	0.920270554085	0.056550522990	-0.173551511812	0.996831660853	0.443595312495	0.160519409898	1.035779473444	0.329871947947	0.182439200983	0.946192929522	0.362768921424	0.218446472788	0.869421542197	0.383354746927	0.150842457770	0.769852112997	0.363147077990	-0.168934516568	0.757821726337	0.236004280683	-0.152231322936	0.631855662665	0.344298358615	-0.152489840131	0.695688977405	0.277632187800	-0.206034761297	0.971769040408	0.560039929800	0.119024241217	0.800908587497	0.466822735954	-0.168935623915	0.874147356599	0.843743579243	0.089709382895	0.824952322199	0.761156585629	0.146853761746	0.932700043385	0.701912680110	0.078446416817	0.859574435836	0.775126035189	-0.186179520540	0.841403395593	0.610718368046	-0.173024882454	0.758333000811	0.702899112660	-0.243910420299	0.854213778162	0.935901883603	-0.179513377277	0.814543077980	0.953415586068	0.061376905784	0.645112106165	0.986474229545	-0.080935941108	0.773308939747	1.437716634389	0.089571305089	0.821276706390	1.458287787463	-0.218407686824	0.754887505752	1.478715685748	-0.065313032588	0.856095699339	1.363331467487	-0.058218292712	0.894955389303	1.185298087565	-0.066383126478	0.647692672260	1.330473199140	-0.089419828035	0.853009102151	1.175758989990	-0.386578413617	1.008993513761	0.988395184632	-0.444972168111	0.769340418809	1.164698922327	0.273052141800	0.906442124589	0.991623559452	0.404772185965	0.639779517739	0.987960897005	-0.043987612782	0.651428842366	0.987217005327	-0.118625128573	
582	3.867464646465	0.992487814681	0.112360884729	0.178201061512	1.146577801891	0.197024564506	0.209387410170	1.056536079904	0.128186942895	0.247459519838	1.263467093066	0.175501395443	0.250708511887	0.643948207670	0.042776987221	-0.093849805670	0.806607214026	0.095567894126	-0.144458750602	0.709485754311	0.032674696981	-0.166040309403	0.920270244732	0.056550136890	-0.173550510052	0.996999349668	0.443574459461	0.160393965200	1.035935894112	0.329866050416	0.182303314576	0.946335735416	0.362728786655	0.218335696438	0.869606577819	0.383333028276	0.150693568161	0.769876908034	0.363143158956	-0.168934433972	0.757837597691	0.236001365094	-0.152231480843	0.631876322652	0.344303959410	-0.152489343251	0.695707163037	0.277632140027	-0.206036013917	0.971873691089	0.560047216096	0.118936269759	0.800876989634	0.466741757897	-0.168876618924	0.874197005291	0.843718909469	0.089697780329	0.825004949365	0.761111530809	0.146823940914	0.932765713148	0.701910736947	0.078401900543	0.859583378545	0.775134990460	-0.186144478276	0.841400086322	0.610730760694	-0.172965015053	0.758373945865	0.702904144822	-0.243913493717	0.854224494526	0.935912374016	-0.179515207081	0.814590865777	0.953389812790	0.061375384895	0.645125762559	0.986455088657	-0.080919010199	0.773302096009	1.437716880190	0.089576991903	0.821239607420	1.458273839459	-0.218419378383	0.754856279318	1.478703146170	-0.065294661981	0.856097462256	1.363345778952	-0.058222590368	0.894984199778	1.185333627355	-0.066372470202	0.647675862652	1.330454102706	-0.089400048098	0.852992790065	1.175742515557	-0.386581626227	1.008994774443	0.988396544581	-0.444973221615	0.769334884155	1.164698321675	0.273059752216	0.906441637672	0.991622539903	0.404774395236	0.639792645545	0.987938217940	-0.043971891014	0.651444527853	0.987200547180	-0.118606996754	
